<svg id="Layer_1" data-name="Layer 1" xmlns="http://www.w3.org/2000/svg" xmlns:xlink="http://www.w3.org/1999/xlink" viewBox="0 0 1000 1000"><defs><style>.cls-1{fill:#fff;}.cls-2{fill:url(#linear-gradient);}.cls-3{fill:#31243a;}.cls-4{fill:none;stroke-miterlimit:10;stroke-width:4px;stroke:url(#linear-gradient-2);}.cls-5{fill:url(#linear-gradient-3);}.cls-6{fill:url(#linear-gradient-4);}.cls-7{fill:url(#linear-gradient-5);}.cls-8{fill:url(#linear-gradient-6);}.cls-9{fill:url(#linear-gradient-7);}.cls-10{fill:url(#linear-gradient-8);}.cls-11{fill:url(#linear-gradient-9);}.cls-12{fill:url(#linear-gradient-10);}.cls-13{fill:url(#linear-gradient-11);}.cls-14{fill:url(#linear-gradient-12);}</style><linearGradient id="linear-gradient" x1="333.97" y1="673.18" x2="823.8" y2="183.35" gradientUnits="userSpaceOnUse"><stop offset="0" stop-color="#6c3e62"/><stop offset="0.56" stop-color="#ee3255" stop-opacity="0.95"/></linearGradient><linearGradient id="linear-gradient-2" x1="355.52" y1="640.01" x2="631.35" y2="364.18" xlink:href="#linear-gradient"/><linearGradient id="linear-gradient-3" x1="409.05" y1="586.47" x2="653.64" y2="341.89" gradientUnits="userSpaceOnUse"><stop offset="0" stop-color="#6c3e62"/><stop offset="0.37" stop-color="#ee3255" stop-opacity="0.95"/></linearGradient><linearGradient id="linear-gradient-4" x1="214.17" y1="629.77" x2="295.59" y2="629.77" gradientUnits="userSpaceOnUse"><stop offset="0" stop-color="#6c3e62"/><stop offset="0.22" stop-color="#ee3255" stop-opacity="0.95"/></linearGradient><linearGradient id="linear-gradient-5" x1="266.43" y1="707.09" x2="325.42" y2="657.1" gradientUnits="userSpaceOnUse"><stop offset="0" stop-color="#6c3e62"/><stop offset="0.21" stop-color="#ee3255" stop-opacity="0.95"/></linearGradient><linearGradient id="linear-gradient-6" x1="325.79" y1="756.03" x2="368.8" y2="690.82" gradientUnits="userSpaceOnUse"><stop offset="0" stop-color="#6c3e62"/><stop offset="0.4" stop-color="#ee3255" stop-opacity="0.95"/></linearGradient><linearGradient id="linear-gradient-7" x1="391.19" y1="777.91" x2="410.64" y2="733.7" gradientUnits="userSpaceOnUse"><stop offset="0" stop-color="#6c3e62"/><stop offset="0.25" stop-color="#ee3255" stop-opacity="0.95"/></linearGradient><linearGradient id="linear-gradient-8" x1="456.65" y1="808.81" x2="474.23" y2="757.19" gradientUnits="userSpaceOnUse"><stop offset="0" stop-color="#6c3e62"/><stop offset="0.28" stop-color="#ee3255" stop-opacity="0.95"/></linearGradient><linearGradient id="linear-gradient-9" x1="552.03" y1="795" x2="561.31" y2="743.45" gradientUnits="userSpaceOnUse"><stop offset="0" stop-color="#6c3e62"/><stop offset="0.31" stop-color="#ee3255" stop-opacity="0.95"/></linearGradient><linearGradient id="linear-gradient-10" x1="637.59" y1="776.75" x2="625.22" y2="719.8" gradientUnits="userSpaceOnUse"><stop offset="0" stop-color="#6c3e62"/><stop offset="0.25" stop-color="#ee3255" stop-opacity="0.95"/></linearGradient><linearGradient id="linear-gradient-11" x1="690.65" y1="740.62" x2="662.47" y2="666.12" gradientUnits="userSpaceOnUse"><stop offset="0" stop-color="#6c3e62"/><stop offset="0.2" stop-color="#ee3255" stop-opacity="0.95"/></linearGradient><linearGradient id="linear-gradient-12" x1="746.98" y1="695.73" x2="702.78" y2="630.74" gradientUnits="userSpaceOnUse"><stop offset="0" stop-color="#6c3e62"/><stop offset="0.32" stop-color="#ee3255" stop-opacity="0.95"/></linearGradient></defs><rect class="cls-1" x="-9" y="-9" width="1018" height="1018"/><circle class="cls-2" cx="507.15" cy="500" r="346.36"/><path class="cls-3" d="M853.51,500c0,191.29-155.07,346.36-346.36,346.36S160.79,691.29,160.79,500"/><circle class="cls-3" cx="495.53" cy="500" r="208.14"/><path class="cls-4" d="M493.43,695.23c-106.49,0-193.13-86.64-193.13-193.13S386.94,309,493.43,309,686.56,395.6,686.56,502.1,599.93,695.23,493.43,695.23Zm0-384.29c-105.4,0-191.15,85.75-191.15,191.16S388,693.25,493.43,693.25,684.58,607.5,684.58,502.1,598.83,310.94,493.43,310.94Z"/><circle class="cls-5" cx="495.53" cy="500" r="172.95"/><path class="cls-3" d="M270.46,387.13l16.06,9.25L283,402.55,224.65,369l3.55-6.17,34,19.56-18.46-46.52,4.24-7.35L260.09,360l47.69-.56-4.13,7.19-41,.12Z"/><path class="cls-3" d="M291.6,322.29l19.9-20.92,4.66,4.44-19.9,20.91,17.81,16.94,23.26-24.45,4.66,4.44-28.16,29.6-48.76-46.37,28.16-29.61,4.67,4.43-23.26,24.45Z"/><path class="cls-3" d="M392.71,289.64l-6,3.79L328.35,266,357.19,312l-6,3.78-35.79-57,6-3.79,58.22,27.25-28.73-45.76,6-3.79Z"/><path class="cls-3" d="M426.12,277.69l-6.76,2.23-8.84-26.87-31.27-30.79,7.32-2.4,25.19,25.7,5.11-35.67,7.32-2.41-6.87,43.44Z"/><path class="cls-3" d="M458.47,253.34,454.31,270l-7.48.68,18.29-69.23,5.92-.54,30.47,64.8-7.48.68-7.1-15.61Zm10.46-42.27-9,36.07,24.37-2.22Z"/><path class="cls-3" d="M540.19,245l4.53-16.86Q548.2,215.26,556,211t18.28-1.49a27.12,27.12,0,0,1,11,5.58,18.64,18.64,0,0,1,5.9,9.06,20.47,20.47,0,0,1-.09,11.19l-.07.28-6.88-1.85.08-.28q1.69-6.31-1.41-11.09t-10.17-6.68q-7.82-2.1-13.11,1.22t-8,13.4l-4.56,17q-4.89,18.17,11.21,22.51,7.07,1.89,12.09-.64t6.73-8.84l.1-.38,6.68,1.8-.1.38q-2.46,9.14-9.83,12.9T556.38,276q-10.46-2.81-15.06-10.46T540.19,245Z"/><path class="cls-3" d="M604.61,275.67,591.76,287l-6.55-3.67,54.26-46.73,5.19,2.91L633.11,310.2l-6.55-3.68,3-16.88Zm32.55-28.94-27.8,24.66,21.35,12Z"/><path class="cls-3" d="M664.8,299.06l-20.25,21.53-5.18-4.88,46.1-49,18.19,17.1q6.89,6.49,7.46,13.78t-5.65,13.91a18.27,18.27,0,0,1-10.92,6.06,18.55,18.55,0,0,1-12-2.74l-9.13,32.92-6-5.62,9.16-32Zm16.78,7.35q4.77,4.48,9.63,4.57t9-4.31q4.28-4.55,3.86-9.3t-5.26-9.29l-12.57-11.82L669,294.59Z"/><path class="cls-3" d="M715.58,342.66l15.78,24.18L726,370.36l-15.78-24.18-20.58,13.43,18.44,28.26-5.39,3.52-22.33-34.22,56.36-36.78L759,354.61l-5.39,3.52-18.44-28.26Z"/><path class="cls-6" d="M241,621.36l-16.3,8.83-3.39-6.26,59.17-32,3.39,6.26-34.47,18.67,49.29,8.69,4,7.46-33.19-6.2L245,667.66l-3.95-7.28,21.42-35Z"/><path class="cls-7" d="M292.68,667.25,312,688.67,307.25,693,287.9,671.56,269.67,688l22.61,25-4.77,4.32-27.39-30.33L310.06,642l27.38,30.32-4.77,4.32-22.62-25Z"/><path class="cls-8" d="M350,763.64l-5.93-3.94,1-64.44-30,45.16-5.93-3.94,37.26-56.05,5.93,3.94-.92,64.28,29.92-45,5.93,3.94Z"/><path class="cls-9" d="M397.67,783.78l-6.7-2.4,9.54-26.63-5.76-43.5,7.25,2.6,4.08,35.75,25.94-25,7.25,2.6-32.1,30Z"/><path class="cls-10" d="M448,780.3l-7.5,15.42-7.46-.87,32.14-64,5.9.69,16.49,69.68-7.45-.87-3.74-16.74Zm18.93-39.22-16.19,33.45,24.31,2.85Z"/><path class="cls-11" d="M537.59,772.92l-4.09-17q-3.13-13,1.67-20.52t15.33-10.07a27.43,27.43,0,0,1,12.3-.36,18.75,18.75,0,0,1,9.52,5.13A20.59,20.59,0,0,1,577.6,740l.07.29L570.75,742l-.07-.29q-1.53-6.34-6.54-9t-12.13-1q-7.87,1.89-10.92,7.35t-.6,15.59l4.11,17.07Q549,789.93,565.22,786q7.11-1.71,10.31-6.34t1.67-11l-.09-.38,6.73-1.62.09.38q2.22,9.2-2.45,16t-14.82,9.29q-10.51,2.54-18.23-2T537.59,772.92Z"/><path class="cls-12" d="M615,758l2.54,17-6.64,3.5-9.7-71,5.26-2.77,53,48.14-6.65,3.49-12.55-11.68Zm-6.58-43L614,751.7l21.65-11.41Z"/><path class="cls-13" d="M665,711.4l19.68,22-5.31,4.74L634.52,688l18.63-16.62q7.05-6.3,14.37-6.23T680.88,672A18.21,18.21,0,0,1,686,683.38a18.49,18.49,0,0,1-3.77,11.73l32,12-6.11,5.45-31-11.91Zm8.79-16.08q4.88-4.35,5.39-9.19t-3.51-9.35q-4.15-4.66-8.92-4.65T657,676.55L644.12,688l16.75,18.78Z"/><path class="cls-14" d="M705.13,658.71,721.53,635l5.3,3.66-16.4,23.76,20.22,14,19.18-27.77,5.29,3.66L731.9,685.85l-55.38-38.24L699.74,614l5.3,3.66-19.17,27.77Z"/><path class="cls-3" d="M484.66,356.16c1.75,20.69-1.78,39.11,8.25,57.67,9,13.54,37.63,38.62,37.63,56.67s0,44.38-19.55,66.19c-10.53-32.34-17.3-39.86-37.61-60.93s-26.33-46.63-21.82-64.69S484.66,356.16,484.66,356.16Z"/><path class="cls-3" d="M558.63,446.43c2.5,31.84,9,69-9.53,102.05-24.07,29.58-42.79,52.15-58.75,65.19,43.7,2.5,77.8-11.54,94.85-33.6s27.58-48.14,13.54-86.25S558.63,446.43,558.63,446.43Z"/><path class="cls-3" d="M410.94,422.73C398,446,379.35,476.89,388,510s59.23,88.38,62.15,98.91c16.83-22.94,30-51.52,22.47-72.21S435.73,489,428.62,475C428.62,475,409.69,448.94,410.94,422.73Z"/></svg>